<?xml version="1.0" encoding="UTF-8" standalone="no"?>
<!-- Created with Inkscape (http://www.inkscape.org/) -->

<svg
   xmlns:dc="http://purl.org/dc/elements/1.1/"
   xmlns:cc="http://creativecommons.org/ns#"
   xmlns:rdf="http://www.w3.org/1999/02/22-rdf-syntax-ns#"
   xmlns:svg="http://www.w3.org/2000/svg"
   xmlns="http://www.w3.org/2000/svg"
   xmlns:sodipodi="http://sodipodi.sourceforge.net/DTD/sodipodi-0.dtd"
   xmlns:inkscape="http://www.inkscape.org/namespaces/inkscape"
   width="94.706207mm"
   height="90.226051mm"
   viewBox="0 0 94.706207 90.226051"
   version="1.1"
   id="svg8"
   sodipodi:docname="gopher.svg"
   inkscape:version="0.92.3 (2405546, 2018-03-11)">
  <defs
     id="defs2" />
  <sodipodi:namedview
     id="base"
     pagecolor="#ffffff"
     bordercolor="#666666"
     borderopacity="1.0"
     inkscape:pageopacity="0.0"
     inkscape:pageshadow="2"
     inkscape:zoom="1.979899"
     inkscape:cx="209.73315"
     inkscape:cy="190.33168"
     inkscape:document-units="mm"
     inkscape:current-layer="layer1"
     showgrid="false"
     inkscape:window-width="1920"
     inkscape:window-height="1025"
     inkscape:window-x="0"
     inkscape:window-y="27"
     inkscape:window-maximized="1"
     fit-margin-top="1"
     fit-margin-right="1"
     fit-margin-bottom="1"
     fit-margin-left="1" />
  <metadata
     id="metadata5">
    <rdf:RDF>
      <cc:Work
         rdf:about="">
        <dc:format>image/svg+xml</dc:format>
        <dc:type
           rdf:resource="http://purl.org/dc/dcmitype/StillImage" />
        <dc:title></dc:title>
      </cc:Work>
    </rdf:RDF>
  </metadata>
  <g
     inkscape:label="Layer 1"
     inkscape:groupmode="layer"
     id="layer1"
     transform="translate(-58.849156,-94.408659)">
    <path
       style="fill:#ffe3ce;fill-opacity:1;stroke:#ffe3ce;stroke-width:3.77952766;stroke-miterlimit:4;stroke-dasharray:none;stroke-opacity:1"
       d="m 396.80864,502.12744 c -1.21342,-1.21342 -1.52946,-2.68664 -1.11898,-5.21612 0.74345,-4.58137 1.90823,-5.69115 4.51114,-4.29811 3.32306,1.77844 11.95297,1.32014 16.23017,-0.86192 4.5508,-2.32164 6.16805,-1.38842 6.16805,3.55922 0,4.15928 -1.13704,4.99426 -9.41541,6.91414 -8.92767,2.07046 -14.23883,2.03894 -16.37497,-0.0972 z"
       id="path889"
       inkscape:connector-curvature="0"
       transform="scale(0.26458333)" />
    <path
       style="fill:#ffffff;fill-opacity:1;stroke:#ffffff;stroke-width:0.95447487;stroke-miterlimit:4;stroke-dasharray:none;stroke-opacity:1"
       d="m 186.24045,159.83992 c -0.46721,-0.56296 -0.78922,-2.85363 -0.78922,-5.61431 0,-2.34273 0.0568,-2.66671 0.56821,-3.23902 0.72539,-0.81183 1.67974,-1.04068 2.33598,-0.56017 0.47062,0.3446 0.50508,0.66146 0.50508,4.64449 0,3.25196 -0.0829,4.37457 -0.3466,4.6922 -0.41801,0.50357 -1.87832,0.5529 -2.27345,0.0768 z"
       id="path831"
       inkscape:connector-curvature="0"
       transform="matrix(0.26458333,0,0,0.26458333,58.849156,94.408659)" />
    <path
       style="fill:#ffffff;fill-opacity:1;stroke:#ffffff;stroke-width:0.95447487;stroke-miterlimit:4;stroke-dasharray:none;stroke-opacity:1"
       d="m 192.14389,158.756 c -0.35492,-0.35491 -0.40288,-0.95262 -0.33371,-4.15857 0.0896,-4.15492 0.29723,-4.74058 1.56734,-4.4218 1.10756,0.27798 1.29541,0.97961 1.24771,4.66029 -0.0363,2.79885 -0.11754,3.4495 -0.48108,3.8512 -0.53657,0.59291 -1.44496,0.62419 -2.00026,0.0689 z"
       id="path833"
       inkscape:connector-curvature="0"
       transform="matrix(0.26458333,0,0,0.26458333,58.849156,94.408659)" />
    <path
       style="fill:#ffffff;fill-opacity:1;stroke:#ffffff;stroke-width:0.95447487;stroke-miterlimit:4;stroke-dasharray:none;stroke-opacity:1"
       d="m 243.07769,105.80952 c -0.50291,-0.53533 -0.51505,-0.62376 -0.15597,-1.13642 0.2163,-0.30881 0.65729,-0.55592 0.99209,-0.55592 0.3348,0 0.77579,0.24711 0.99209,0.55592 0.35908,0.51266 0.34694,0.60109 -0.15597,1.13642 -0.29995,0.31927 -0.6762,0.5805 -0.83612,0.5805 -0.15992,0 -0.53617,-0.26123 -0.83612,-0.5805 z"
       id="path829"
       inkscape:connector-curvature="0"
       transform="matrix(0.26458333,0,0,0.26458333,58.849156,94.408659)" />
    <path
       style="fill:#ffffff;fill-opacity:1;stroke:#ffffff;stroke-width:3.81789947;stroke-miterlimit:4;stroke-dasharray:none;stroke-opacity:1"
       d="m 222.63742,138.38246 c -2.03111,-0.75604 -5.74865,-2.57936 -8.2612,-4.05181 -6.43114,-3.7689 -9.06759,-10.63106 -9.17867,-23.89027 -0.10309,-12.304841 1.5429,-17.960422 6.8697,-23.604145 5.93103,-6.283897 13.61098,-9.052752 25.37478,-9.14838 8.00226,-0.06505 9.70946,0.251976 14.25083,2.646377 11.35175,5.985121 18.40604,17.855379 17.22652,28.987098 -1.34035,12.64969 -6.8087,21.3083 -16.9762,26.88018 -4.80068,2.63082 -6.54711,2.99788 -15.5113,3.2601 -6.71296,0.19636 -11.34032,-0.16564 -13.79446,-1.07915 z m 28.63665,-24.58299 c 1.01353,-0.91723 2.37018,-3.42802 3.01479,-5.57954 1.02868,-3.43342 0.92732,-4.23958 -0.82875,-6.59165 -1.10043,-1.4739 -3.23412,-3.600646 -4.74155,-4.726104 -2.69148,-2.00948 -2.80335,-2.012588 -6.21961,-0.172809 -6.1775,3.326803 -7.09846,11.678313 -1.9057,17.281393 2.06614,2.2294 3.09028,2.60595 5.67937,2.08813 1.73727,-0.34746 3.98792,-1.3822 5.00145,-2.29942 z"
       id="path825"
       inkscape:connector-curvature="0"
       transform="matrix(0.26458333,0,0,0.26458333,58.849156,94.408659)" />
    <path
       style="fill:#ffffff;fill-opacity:1;stroke:#ffffff;stroke-width:0.95447487;stroke-miterlimit:4;stroke-dasharray:none;stroke-opacity:1"
       d="m 118.69403,105.92819 c -0.79768,-0.88143 -0.26636,-1.93176 0.89398,-1.76727 1.00765,0.14285 0.85109,2.2291 -0.16728,2.2291 -0.16981,0 -0.49682,-0.20782 -0.7267,-0.46183 z"
       id="path827"
       inkscape:connector-curvature="0"
       transform="matrix(0.26458333,0,0,0.26458333,58.849156,94.408659)" />
    <path
       style="fill:#ffffff;fill-opacity:1;stroke:#ffffff;stroke-width:3.81789947;stroke-miterlimit:4;stroke-dasharray:none;stroke-opacity:1"
       d="m 126.19248,146.31958 c -8.02846,-1.76062 -11.32437,-3.52989 -15.7959,-8.47934 -4.82359,-5.33914 -6.35259,-8.47109 -7.84915,-16.07799 -1.57202,-7.99042 -0.77683,-14.80664 2.60703,-22.346879 5.14385,-11.462026 15.05271,-17.476741 29.8088,-18.094063 12.13205,-0.507545 16.52071,0.89167 22.70467,7.238823 6.28844,6.45438 9.5685,15.300749 9.5685,25.806359 0,5.89817 -0.52584,7.96523 -3.57863,14.06738 -4.09304,8.18152 -7.54721,11.48355 -16.11934,15.40937 -7.67518,3.51504 -13.51841,4.19291 -21.34598,2.47634 z m 1.0067,-32.92205 c 3.49604,-2.75 3.73082,-9.40663 0.47763,-13.54239 -1.98116,-2.518629 -2.60908,-2.718212 -6.76136,-2.149079 -5.40382,0.740676 -9.25231,3.922269 -9.20161,7.607109 0.11213,8.15095 9.30163,12.94846 15.48534,8.08436 z"
       id="path823"
       inkscape:connector-curvature="0"
       transform="matrix(0.26458333,0,0,0.26458333,58.849156,94.408659)" />
    <path
       style="fill:#ffe3ce;fill-opacity:1;stroke:#ffe3ce;stroke-width:0.95447487;stroke-miterlimit:4;stroke-dasharray:none;stroke-opacity:1"
       d="m 478.89121,575.3171 c -0.3678,-0.22822 -1.07646,-1.03409 -1.5748,-1.79082 -1.35885,-2.06337 -4.02393,-7.45604 -4.95633,-10.02889 -1.14555,-3.161 -2.21278,-5.20926 -2.79335,-5.36109 -0.43726,-0.11434 -0.48713,-0.3687 -0.48713,-2.48461 0,-2.80587 0.3515,-4.6474 1.02509,-5.37041 0.51169,-0.54924 1.57088,-0.90379 3.53665,-1.18386 l 1.15248,-0.1642 0.80645,3.93188 c 0.96777,4.7184 1.38586,6.03303 4.1042,12.90514 1.71614,4.33849 2.11724,5.61355 2.20472,7.0087 0.13391,2.13557 -0.29866,2.97002 -1.53433,2.95983 -0.44821,-0.004 -1.11586,-0.19344 -1.48365,-0.42167 z"
       id="path932"
       inkscape:connector-curvature="0"
       transform="scale(0.26458333)" />
    <path
       style="fill:#ffe3ce;fill-opacity:1;stroke:#ffe3ce;stroke-width:0.95447487;stroke-miterlimit:4;stroke-dasharray:none;stroke-opacity:1"
       d="m 321.59732,575.92831 c -0.70026,-0.24488 -0.92911,-0.49271 -1.10158,-1.19297 -0.32859,-1.33408 0.79223,-4.37037 2.84327,-7.70241 0.94048,-1.52786 2.02957,-3.34613 2.42021,-4.04061 0.39065,-0.69448 1.77022,-2.82078 3.06571,-4.7251 1.2955,-1.90432 2.55734,-3.8897 2.80409,-4.41196 0.34926,-0.73922 0.67239,-1.01683 1.45879,-1.25328 3.54569,-1.06608 5.52197,0.3839 6.3666,4.67112 0.33704,1.71077 0.34345,2.06916 0.0442,2.47421 -1.73316,2.34616 -10.49852,13.10754 -11.44505,14.0513 -0.66737,0.66541 -1.62596,1.41899 -2.1302,1.67462 -1.24049,0.62888 -3.23043,0.83822 -4.32606,0.45508 z"
       id="path930"
       inkscape:connector-curvature="0"
       transform="scale(0.26458333)" />
    <path
       style="fill:#5adaff;fill-opacity:1;stroke:#5adaff;stroke-width:3.77952766;stroke-miterlimit:4;stroke-dasharray:none;stroke-opacity:1"
       d="m 383.24915,643.4888 c -8.0405,-0.5112 -13.98024,-1.35015 -22.67857,-3.20321 -4.85577,-1.03446 -6.33135,-1.51758 -9.82143,-3.21565 -6.86504,-3.34013 -9.59677,-5.37206 -12.65984,-9.41674 -5.33548,-7.04533 -6.69191,-9.49779 -9.33614,-16.88003 -3.00648,-8.39359 -3.54038,-11.51041 -3.53637,-20.64472 0.005,-10.71986 -0.052,-10.49327 3.31643,-13.23876 1.5134,-1.2335 3.31413,-2.88859 4.00163,-3.67799 3.52963,-4.05278 7.5791,-10.17723 8.81199,-11.58863 2.88714,-3.30517 5.70303,-5.59882 0.34174,-2.49395 -0.23609,-5.89686 -3.03247,-10.68232 -10.0477,-8.15963 -0.55275,-0.8436 -0.70669,-0.87946 -2.80925,-0.65429 -1.66193,0.17797 -2.32488,0.11674 -2.62155,-0.24212 -0.49602,-0.60001 -1.39475,-4.1312 -1.71295,-6.73034 -0.13227,-1.08036 -0.6251,-3.97321 -1.09519,-6.42857 -0.64238,-3.35529 -0.9424,-6.63791 -1.20774,-13.21429 -0.19417,-4.8125 -0.54377,-10.94519 -0.77689,-13.6282 -0.32445,-3.73429 -0.32666,-6.30361 -0.009,-10.95678 0.42945,-6.29845 0.88354,-8.47491 1.90057,-9.10946 0.80139,-0.50001 1.29612,-0.049 3.68356,3.35814 3.58216,5.11213 11.79943,11.3156 18.22137,13.7559 6.27943,2.38614 21.02729,1.1351 28.39286,-2.40852 2.76273,-1.32917 3.53659,-1.96217 8.6057,-7.03936 6.08323,-6.09291 7.73542,-8.42389 9.60837,-13.55592 2.01232,-5.51387 2.8324,-14.31975 1.62623,-17.46214 -0.28426,-0.74058 -0.67707,-2.727 -0.8729,-4.41425 -0.53891,-4.64306 -3.53701,-11.92522 -6.06674,-14.73562 -0.73387,-0.8153 -2.08507,-2.55096 -3.00267,-3.85703 -2.72614,-3.88027 -8.34501,-7.50648 -14.00513,-9.03839 -3.08244,-0.83425 -9.53126,-1.0535 -15.71429,-0.53425 -8.27867,0.69524 -9.26403,0.67064 -9.39324,-0.2345 -0.25089,-1.75743 8.57323,-8.47285 16.30731,-12.41035 7.38915,-3.7619 10.9544,-4.74746 24.15736,-6.67795 2.55357,-0.37337 5.38144,-0.90822 6.28415,-1.18856 0.90271,-0.28033 3.47414,-0.61378 5.71429,-0.741 2.24014,-0.12721 6.31822,-0.48473 9.06239,-0.79447 6.33376,-0.71492 18.31371,-0.49733 21.08203,0.3829 0.98214,0.31229 2.19935,0.56954 2.70491,0.57166 1.1599,0.005 5.30131,1.25506 11.04509,3.33423 11.49843,4.16226 20,8.69705 20,10.66812 0,0.89003 -0.8015,1.17373 -6.42857,2.27549 -3.52926,0.69101 -6.18104,1.49392 -9.89445,2.99585 -7.46305,3.01852 -8.52135,3.75194 -12.64882,8.76589 -5.63611,6.84661 -9.07007,14.66279 -9.49288,21.60714 -0.26639,4.37507 0.45007,11.30334 1.68042,16.25 0.88564,3.56078 1.34121,4.68858 2.69322,6.66732 2.4552,3.59331 5.03214,6.07318 8.95877,8.62129 7.93524,5.14942 11.33412,6.25506 22.71199,7.38809 3.11716,0.31042 4.46157,0.27969 7.22594,-0.16514 4.73742,-0.76233 5.26556,-0.98843 12.69438,-5.43462 3.63393,-2.17492 6.937,-4.05505 7.34016,-4.17806 0.41237,-0.12582 1.03728,-2.1e-4 1.42857,0.28715 0.61657,0.45281 0.68459,0.88894 0.59902,3.84096 -0.1682,5.80281 -0.60481,8.61435 -4.23297,27.25873 -0.68805,3.53571 -1.56179,7.63393 -1.94166,9.10714 -0.37986,1.47322 -1.08797,5.06676 -1.57356,7.98564 -0.4856,2.91889 -1.05169,5.51044 -1.25798,5.75901 -0.20629,0.24856 -0.99402,0.55091 -1.75052,0.67187 -7.57791,1.19798 -10.55761,-0.49827 -9.70159,13.73206 -0.66925,2.41007 0.28423,2.67309 1.84311,4.89845 0.80677,1.15171 2.72415,4.69484 4.26085,7.87361 l 2.79399,5.7796 -0.34824,4.9437 c -0.19154,2.71903 -0.73005,6.95702 -1.19669,9.41774 -0.46664,2.46072 -1.03153,5.58683 -1.25531,6.9469 -0.8988,5.46259 -4.86168,15.39113 -8.12815,20.3641 -5.34234,8.13338 -16.91894,15.99833 -26.87903,18.26118 -2.25893,0.51321 -7.32143,1.7289 -11.25,2.70154 -3.92857,0.97263 -8.66965,1.91771 -10.53572,2.10016 -4.77035,0.46641 -24.48414,0.33698 -33.21428,-0.21807 z m 33.22329,-123.36494 c 2.33076,-1.18907 2.52128,-1.75271 2.86154,-8.46579 l 0.3038,-5.9939 1.18068,-1.02588 c 4.53179,-3.93761 4.98703,-4.67691 5.21175,-8.46384 0.18031,-3.03843 0.0812,-3.31233 -2.86677,-7.92265 -0.974,-1.52323 -1.99974,-3.52987 -2.27943,-4.45919 -0.7406,-2.46083 -2.03699,-4.21182 -4.15745,-5.61536 -4.48565,-2.96904 -10.77532,-2.40884 -16.39095,1.4599 -1.3887,0.9567 -2.42192,2.91498 -3.18251,6.03182 -0.23902,0.9795 -1.31068,3.70948 -2.38147,6.06663 -2.25001,4.95296 -2.60287,6.95073 -1.74742,9.89335 0.92409,3.17878 4.39089,5.82067 8.19579,6.24564 2.9423,0.32862 3.15292,0.65548 3.80861,5.91065 0.37076,2.97146 1.37259,5.37935 2.48609,5.97528 2.26044,1.20975 6.92756,1.39906 8.95774,0.36334 z"
       id="path887"
       inkscape:connector-curvature="0"
       transform="scale(0.26458333)"
       sodipodi:nodetypes="cssssccssccccccscccssccccccscscscccccccscsscccscccscsccccccccccsccscscccccccccccccccccc" />
    <path
       style="fill:#ffe3ce;fill-opacity:1;stroke:#ffe3ce;stroke-width:3.77952766;stroke-miterlimit:4;stroke-dasharray:none;stroke-opacity:1"
       d="m 460.33425,649.0473 c -3.47947,-3.89186 -6.4205,-8.58872 -6.4205,-10.25358 0,-2.20703 4.53082,-4.96674 6.91297,-4.21068 2.73865,0.86922 4.37792,5.44551 4.00754,11.18775 -0.36194,5.6115 -1.60395,6.51583 -4.50001,3.27651 z"
       id="path891"
       inkscape:connector-curvature="0"
       transform="scale(0.26458333)" />
    <path
       style="fill:#ffe3ce;fill-opacity:1;stroke:#ffe3ce;stroke-width:3.77952766;stroke-miterlimit:4;stroke-dasharray:none;stroke-opacity:1"
       d="m 331.34857,646.58669 c -2.15339,-2.15339 2.80664,-11.44839 6.10913,-11.44839 2.11591,0 7.35957,3.25277 7.35957,4.56532 0,2.39168 -6.64952,7.55651 -9.72872,7.55651 -1.6866,0 -3.36959,-0.30305 -3.73998,-0.67344 z"
       id="path893"
       inkscape:connector-curvature="0"
       transform="scale(0.26458333)" />
    <path
       style="fill:#ae9e93;fill-opacity:1;stroke:#ae9e93;stroke-width:3.77952766;stroke-miterlimit:4;stroke-dasharray:none;stroke-opacity:1"
       d="m 402.598,488.46415 c -1.82016,-1.82016 -1.46038,-4.64482 0.74171,-5.82335 1.07464,-0.57513 4.20799,-1.04569 6.96299,-1.04569 5.76416,0 7.26564,1.81273 4.7198,5.69817 -1.27996,1.95348 -2.43128,2.38305 -6.38688,2.38305 -2.65399,0 -5.37092,-0.54548 -6.03762,-1.21218 z"
       id="path895"
       inkscape:connector-curvature="0"
       transform="scale(0.26458333)" />
    <path
       style="fill:#5adaff;fill-opacity:1;stroke:#5adaff;stroke-width:3.77952766;stroke-miterlimit:4;stroke-dasharray:none;stroke-opacity:1"
       d="m 332.94126,437.08192 c -1.14386,-0.43949 -2.64958,-0.84737 -3.91393,-1.06021 -4.32015,-0.72727 -5.95036,-1.27028 -6.87017,-2.28839 -0.85805,-0.94977 -1.09959,-1.78085 -1.09938,-3.78272 1.7e-4,-1.6164 0.0377,-1.7893 0.66229,-3.05312 1.26453,-2.5586 4.13513,-4.78197 7.37399,-5.71136 1.18766,-0.3408 1.83035,-0.40593 3.92053,-0.3973 2.20563,0.009 2.66865,0.0659 3.93233,0.48227 2.46362,0.81175 5.07975,2.65454 5.83537,4.1104 0.46809,0.90189 0.51347,2.29635 0.10021,3.07912 -0.44019,0.83375 -1.38396,1.66905 -2.02078,1.78852 -0.76043,0.14266 -1.50038,-0.25368 -2.88772,-1.54671 -0.61161,-0.57004 -1.45536,-1.23592 -1.875,-1.47975 -2.06334,-1.19886 -5.63768,-0.92461 -6.91537,0.5306 -0.62097,0.70724 -0.69798,1.39188 -0.2551,2.26785 0.868,1.71682 1.97568,2.53302 5.04433,3.71697 2.57405,0.99311 3.05958,1.41011 3.05958,2.6277 0,0.57803 -0.0999,0.99767 -0.28061,1.17835 -0.47708,0.47709 -1.77593,0.31954 -3.81057,-0.46222 z"
       id="path907"
       inkscape:connector-curvature="0"
       transform="scale(0.26458333)" />
    <path
       style="fill:#5adaff;fill-opacity:1;stroke:#5adaff;stroke-width:0.67491567;stroke-miterlimit:4;stroke-dasharray:none;stroke-opacity:1"
       d="m 481.33186,435.04102 c -0.81753,-0.6879 -0.74291,-1.35552 0.42696,-3.82006 0.53701,-1.13131 1.02851,-2.39273 1.09223,-2.80317 0.1005,-0.6474 0.055,-0.80706 -0.34326,-1.20536 -0.25556,-0.25555 -0.66314,-0.4591 -0.91929,-0.4591 -0.72691,0 -2.468,0.64923 -4.57526,1.70605 -2.28928,1.14812 -4.3282,1.86692 -5.28014,1.86145 -1.49161,-0.009 -3.19322,-1.37867 -4.09804,-3.29965 -0.79601,-1.68997 -0.50538,-2.70734 1.22587,-4.29119 1.35948,-1.24373 3.59936,-2.62002 5.4053,-3.32127 3.39498,-1.31827 7.91265,-0.9374 10.76751,0.90779 1.17777,0.76123 1.78985,1.47318 2.39513,2.78593 0.36493,0.79146 0.40715,1.1535 0.40715,3.49123 v 2.6082 l -0.93504,1.88158 c -1.15522,2.32464 -2.06217,3.49374 -3.11714,4.01809 -1.06814,0.5309 -1.7697,0.51358 -2.45198,-0.0605 z"
       id="path909"
       inkscape:connector-curvature="0"
       transform="scale(0.26458333)" />
    <g
       id="g883">
      <path
         inkscape:connector-curvature="0"
         id="path880"
         d="m 62.87675,183.49985 c -1.456808,-0.35318 -2.556412,-1.37789 -2.898927,-2.70148 -0.116805,-0.45137 -0.130367,-4.81155 -0.128515,-41.31733 0.0013,-26.6221 0.03121,-40.939048 0.08588,-41.176054 0.294868,-1.278317 1.37192,-2.346217 2.784916,-2.761252 0.407535,-0.119704 1.419212,-0.134961 8.89,-0.13407 8.958915,0.0011 8.823452,-0.0046 9.623662,0.404518 0.505699,0.258563 1.174196,1.029986 1.388183,1.601917 0.09937,0.265581 0.202126,0.789328 0.228355,1.163883 0.131371,1.876008 -0.922549,3.283048 -2.753193,3.675648 -0.303418,0.0651 -2.056967,0.0957 -5.479708,0.0957 h -5.033499 v 37.16866 37.16867 l 5.185833,0.001 c 5.617456,0.001 5.633557,0.002 6.492935,0.46999 0.952645,0.51849 1.519829,1.44705 1.591904,2.60617 0.07449,1.19806 -0.303004,2.24277 -1.069465,2.9597 -0.468583,0.4383 -0.910273,0.66147 -1.603333,0.81011 -0.711845,0.15267 -16.663773,0.11967 -17.305029,-0.0358 z m 69.23349,0.0109 c -0.68468,-0.17171 -1.02808,-0.35234 -1.48832,-0.78284 -0.76664,-0.7171 -1.14748,-1.76528 -1.07144,-2.94892 0.0978,-1.52224 0.84077,-2.4885 2.24758,-2.92302 0.51477,-0.159 0.80203,-0.16731 5.78209,-0.16731 h 5.24042 v -37.16509 -37.16509 l -5.31283,-0.0262 c -5.24116,-0.0258 -5.3195,-0.0287 -5.80647,-0.21302 -1.50634,-0.57011 -2.28321,-1.87195 -2.1504,-3.603526 0.11534,-1.503506 0.89018,-2.543344 2.19868,-2.950594 0.47492,-0.147812 0.9729,-0.156481 8.98886,-0.156481 7.52006,0 8.53844,0.01538 8.94596,0.135075 1.41299,0.415035 2.49005,1.482935 2.78492,2.761252 0.0547,0.237006 0.0845,14.553954 0.0859,41.176054 0.002,36.50578 -0.0117,40.86596 -0.12851,41.31733 -0.34977,1.35158 -1.5012,2.39524 -2.99099,2.71101 -0.77821,0.16496 -16.66819,0.16621 -17.32543,0.001 z m -10.33602,-10.3289 c -0.37388,-0.1628 -1.29057,-1.22204 -1.68665,-1.94893 -0.39909,-0.73243 -1.19116,-1.62262 -1.51638,-1.70425 -0.12623,-0.0317 -0.37988,-0.0374 -0.56365,-0.0128 -0.34585,0.0464 -2.31352,0.57364 -3.71964,0.9967 -0.89512,0.26933 -1.97945,0.4502 -3.5375,0.59009 -0.57192,0.0514 -1.22677,0.14888 -1.45523,0.21672 -0.31867,0.0947 -1.04252,0.12789 -3.10883,0.14282 -2.37734,0.0172 -2.76299,0.001 -3.2861,-0.13536 -0.32597,-0.0851 -1.12607,-0.18923 -1.778,-0.23129 -0.65194,-0.0421 -1.623485,-0.13262 -2.159002,-0.20124 -0.535517,-0.0686 -1.438013,-0.18473 -2.005548,-0.25801 -0.567534,-0.0733 -1.520034,-0.24853 -2.116666,-0.38943 -1.875752,-0.443 -2.056857,-0.4651 -2.415821,-0.29476 -0.172512,0.0819 -0.381751,0.25508 -0.464978,0.38493 -0.08323,0.12984 -0.44067,0.49822 -0.79432,0.81861 -0.484235,0.43869 -0.822785,0.6606 -1.371127,0.89876 -0.858037,0.37266 -1.101463,0.38574 -1.98499,0.10663 -1.080875,-0.34144 -1.532458,-0.96478 -1.439739,-1.98731 0.06297,-0.69448 0.362136,-1.28591 1.046003,-2.06789 0.819506,-0.93709 0.818709,-0.93567 0.818709,-1.45487 0,-0.39274 -0.07269,-0.61276 -0.467665,-1.4155 -0.740889,-1.50578 -1.144048,-2.3729 -1.209542,-2.60149 -0.03336,-0.11641 -0.168705,-0.44026 -0.300778,-0.71966 -0.627993,-1.32853 -1.066873,-3.8015 -1.224609,-6.90034 -0.032,-0.62865 -0.09184,-1.20697 -0.132987,-1.28516 -0.04114,-0.0782 -0.274936,-0.21551 -0.519541,-0.30516 -0.60011,-0.21994 -0.770012,-0.52663 -0.706665,-1.27561 0.06258,-0.73996 0.648938,-2.41351 1.154579,-3.29536 0.54179,-0.94489 0.545576,-1.10897 0.08737,-3.78704 -0.09561,-0.5588 -0.269234,-1.9685 -0.385836,-3.13267 -0.116601,-1.16416 -0.249191,-2.40241 -0.294646,-2.75166 -0.107347,-0.82482 -0.107933,-3.35709 -0.0014,-6.20774 0.07889,-2.11182 0.204703,-3.38327 0.437149,-4.41793 0.05659,-0.2519 0.101381,-1.45195 0.110601,-2.96333 0.01148,-1.88099 0.05027,-2.73771 0.149534,-3.302 0.158386,-0.90042 0.172753,-0.94057 0.765213,-2.13887 0.470756,-0.95213 0.720802,-1.35377 1.430398,-2.29759 0.436746,-0.58092 0.511454,-0.90639 0.25917,-1.1291 -0.08149,-0.0719 -0.586317,-0.26706 -1.121834,-0.43361 -1.394812,-0.43379 -1.728913,-0.74273 -1.983519,-1.83413 -0.10447,-0.44782 -0.104565,-0.58053 -6.78e-4,-0.97928 0.314959,-1.20921 0.888996,-1.82043 2.293125,-2.44165 1.255605,-0.55551 2.02224,-0.70202 3.01667,-0.5765 0.914036,0.11537 1.50541,0.38051 2.14933,0.96365 0.275959,0.24991 0.53272,0.41074 0.655729,0.41074 0.111195,0 0.425116,-0.1179 0.697603,-0.26201 0.272487,-0.14411 0.772456,-0.37263 1.111041,-0.50783 0.338586,-0.1352 0.881065,-0.3795 1.205509,-0.54289 0.805382,-0.40558 2.472521,-0.93776 3.597548,-1.1484 0.512234,-0.0959 1.15994,-0.24734 1.43934,-0.33652 0.59344,-0.18941 1.84971,-0.39613 3.048,-0.50154 1.42412,-0.12528 1.94191,-0.18496 2.01921,-0.23274 0.22288,-0.13774 2.90194,-0.29119 5.34679,-0.30625 1.28104,-0.008 4.19175,0.67839 5.50333,1.29755 0.2794,0.1319 0.8916,0.35338 1.36044,0.49219 1.77631,0.52591 3.23604,1.18549 4.26125,1.92546 0.4178,0.30156 0.83433,0.27839 1.29332,-0.072 0.96536,-0.73684 1.80561,-1.27369 2.16088,-1.38061 0.74325,-0.22368 2.51395,-0.0676 3.08887,0.27234 0.0703,0.0416 0.41321,0.3823 0.76205,0.75722 0.55852,0.60026 0.65248,0.74893 0.7867,1.24478 0.0939,0.34694 0.13575,0.71109 0.10898,0.94863 -0.0516,0.45814 -0.67366,1.74412 -1.04603,2.16258 -0.57833,0.64993 -0.5941,0.93916 -0.0924,1.69424 0.89246,1.34318 1.24534,2.16574 1.66057,3.87074 0.23778,0.97634 0.27198,1.25866 0.26665,2.20133 -0.008,1.36287 -0.26564,2.84308 -0.60153,3.45203 -0.30133,0.54628 -0.33025,0.70044 -0.42311,2.25551 -0.0427,0.71527 -0.11761,1.60529 -0.16642,1.97782 -0.0488,0.37253 -0.10833,0.86783 -0.13225,1.10067 -0.12569,1.22381 -0.58674,4.25186 -0.71601,4.7026 -0.046,0.16038 -0.0859,0.53951 -0.0887,0.8425 -0.003,0.30299 -0.0363,0.72235 -0.0745,0.9319 -0.12824,0.70351 -0.59541,2.83175 -0.72423,3.29928 -0.0702,0.25462 -0.12756,0.60947 -0.12756,0.78855 0,0.17909 -0.0933,0.77615 -0.20743,1.32681 -0.29527,1.42525 -0.47028,2.86748 -0.46752,3.85284 0.002,0.74112 0.0291,0.89906 0.21086,1.23118 0.93973,1.71747 1.15908,2.95612 0.65222,3.683 -0.13991,0.20064 -0.4068,0.42493 -0.65486,0.55034 -0.49,0.2477 -0.6013,0.43516 -0.67389,1.13502 -0.051,0.49164 -0.13965,0.98135 -0.4268,2.35748 -0.0704,0.3376 -0.1276,0.71835 -0.127,0.84611 0.002,0.50889 -0.44216,2.4601 -0.76838,3.37266 -0.19014,0.53189 -0.40529,1.13851 -0.47813,1.34806 -0.0728,0.20955 -0.19635,0.47625 -0.27449,0.59267 -0.0781,0.11641 -0.32511,0.55456 -0.54885,0.97366 -0.22373,0.4191 -0.50284,0.8763 -0.62024,1.016 -0.11741,0.1397 -0.34303,0.5207 -0.50139,0.84667 -0.23524,0.48422 -0.27855,0.65449 -0.23675,0.93056 0.0549,0.36236 0.42411,0.99821 0.86451,1.48878 0.37822,0.4213 0.42234,0.57772 0.53852,1.90944 l 0.10248,1.17455 -0.26794,0.64241 c -0.28081,0.67327 -0.56832,1.02168 -0.9676,1.17254 -0.32508,0.12283 -0.97597,0.10767 -1.29234,-0.0301 z m 1.19123,-1.03001 c 0.11154,-0.12035 0.21449,-0.33942 0.22879,-0.48684 0.032,-0.32942 -0.0647,-2.00649 -0.14238,-2.46934 -0.0738,-0.43997 -0.38306,-0.96743 -0.76266,-1.30072 -0.29659,-0.26041 -0.40007,-0.29762 -0.78305,-0.28162 -0.2189,0.009 -1.2854,0.62196 -1.5053,0.86494 -0.19663,0.21728 -0.19074,0.76421 0.0117,1.08339 0.81807,1.28994 1.71039,2.51488 1.9292,2.6483 0.37889,0.23104 0.77667,0.20846 1.02372,-0.0581 z m -33.131818,-0.94739 c 0.124334,-0.082 0.533909,-0.47813 0.910167,-0.88028 0.579979,-0.61989 0.684106,-0.77529 0.684106,-1.02093 0,-0.36521 -0.165911,-0.51888 -1.109255,-1.02737 -0.741435,-0.39965 -1.077911,-0.46797 -1.397371,-0.28371 -0.189341,0.10921 -0.784567,0.79002 -1.228372,1.40501 -0.43571,0.60376 -0.442976,1.35815 -0.01688,1.75304 0.203078,0.1882 0.288573,0.20441 1.076075,0.20389 0.674055,-8.5e-4 0.90341,-0.0322 1.08153,-0.14965 z M 110.4779,170.3569 c 0.39582,-0.0437 1.42452,-0.27317 2.286,-0.50994 0.86149,-0.23678 2.00449,-0.50699 2.54,-0.60047 1.68598,-0.2943 2.79009,-0.75335 4.60211,-1.91339 1.30322,-0.8343 2.15762,-1.63344 2.99695,-2.8031 0.55072,-0.76746 0.63167,-0.92011 1.41218,-2.66302 0.5507,-1.22976 0.8928,-2.40523 1.02113,-3.50865 0.0325,-0.2794 0.14803,-0.90805 0.25674,-1.397 0.21712,-0.97646 0.25878,-1.32056 0.3458,-2.85625 l 0.0587,-1.03591 -0.29561,-0.48809 c -0.16259,-0.26845 -0.44165,-0.8625 -0.62013,-1.3201 -0.17848,-0.45761 -0.46856,-1.02911 -0.64462,-1.27 -0.7331,-1.00307 -0.76179,-1.0745 -0.65501,-1.63066 0.16355,-0.8518 0.42567,-0.92893 0.77987,-0.22947 0.11312,0.22338 0.26727,0.61569 0.34256,0.87181 0.22618,0.76941 1.31153,2.85252 1.63354,3.13525 0.55146,0.48419 1.04437,0.26599 1.03964,-0.46021 -0.003,-0.42942 -0.0609,-0.60231 -0.92706,-2.75971 -0.46376,-1.15506 -0.61577,-1.68035 -0.85434,-2.95229 -0.19197,-1.02349 -0.1928,-1.04995 -0.0366,-1.16417 0.0879,-0.0643 0.27638,-0.11745 0.41882,-0.11817 0.4317,-0.002 0.62714,-0.23197 0.69392,-0.81593 0.10725,-0.93795 0.45693,-2.81613 0.61236,-3.2891 0.0918,-0.2794 0.19301,-0.6985 0.22487,-0.93134 0.0319,-0.23283 0.14418,-0.80433 0.2496,-1.27 0.10543,-0.46566 0.25652,-1.26576 0.33576,-1.778 0.0792,-0.51223 0.21642,-1.25518 0.30486,-1.651 0.25048,-1.12114 0.33346,-1.71719 0.43792,-3.14562 0.0882,-1.20584 0.0839,-1.34511 -0.0471,-1.54517 -0.20881,-0.31868 -0.51633,-0.28211 -1.17717,0.13996 -0.30986,0.19791 -0.86052,0.52693 -1.22369,0.73117 -0.36317,0.20423 -0.91717,0.53981 -1.23111,0.74573 -0.6835,0.44832 -1.01605,0.56319 -2.16953,0.7494 -0.93039,0.15019 -1.22728,0.14206 -3.017,-0.0826 -2.20599,-0.27686 -2.94926,-0.55725 -4.95268,-1.86836 -0.90045,-0.58929 -1.1828,-0.82811 -1.67055,-1.41301 -0.85396,-1.02406 -1.03624,-1.33648 -1.21005,-2.07401 -0.0858,-0.36402 -0.2338,-0.96491 -0.32891,-1.33531 -0.1259,-0.49037 -0.18807,-1.08882 -0.22867,-2.20134 -0.0556,-1.52243 -0.0548,-1.53173 0.21433,-2.60846 0.194,-0.77613 0.40352,-1.34864 0.74364,-2.032 0.51724,-1.03924 0.67044,-1.27183 1.37949,-2.09442 0.26091,-0.30268 0.57956,-0.69046 0.70812,-0.86174 0.40746,-0.54283 1.1108,-0.9978 2.15493,-1.39393 0.53882,-0.20443 1.17943,-0.46314 1.42357,-0.57491 0.24415,-0.11177 0.66535,-0.24677 0.93601,-0.3 0.27065,-0.0532 0.73975,-0.15014 1.04243,-0.21535 0.30269,-0.0652 0.72693,-0.14084 0.94275,-0.16805 0.23759,-0.0299 0.45362,-0.11709 0.54753,-0.22086 0.14137,-0.15622 0.14384,-0.1915 0.0278,-0.39844 -0.07,-0.12488 -0.24018,-0.29593 -0.37819,-0.38011 -0.138,-0.0842 -0.5397,-0.33636 -0.89266,-0.56038 -0.35296,-0.22402 -1.01971,-0.5487 -1.48167,-0.7215 -0.46195,-0.1728 -0.95803,-0.38693 -1.10239,-0.47585 -0.27945,-0.17212 -2.64346,-1.00764 -3.60461,-1.27399 -0.31668,-0.0877 -0.68808,-0.15955 -0.82533,-0.15955 -0.13726,0 -0.35682,-0.0422 -0.48791,-0.0937 -0.46583,-0.18309 -1.52915,-0.28159 -3.03235,-0.28092 -1.48941,6.8e-4 -1.97008,0.0315 -3.09033,0.19799 -0.30268,0.045 -1.13229,0.10406 -1.84357,0.13126 -0.97037,0.0371 -1.39312,0.0888 -1.69333,0.20702 -0.22005,0.0867 -0.57155,0.17998 -0.7811,0.20738 -0.20955,0.0274 -0.81915,0.10715 -1.35467,0.17724 -0.53551,0.0701 -1.10701,0.16783 -1.27,0.21719 -0.162979,0.0494 -0.614525,0.12722 -1.00343,0.17302 -0.388905,0.0458 -0.903255,0.15429 -1.143,0.2411 -1.341719,0.48581 -1.719836,0.64821 -2.724556,1.17019 -1.249944,0.64938 -2.76023,1.67794 -3.574519,2.43437 -0.429313,0.39881 -0.550324,0.56435 -0.550324,0.75283 0,0.41386 0.277214,0.47665 1.164167,0.26364 0.713452,-0.17133 3.956124,-0.26289 4.783667,-0.13507 1.812925,0.28002 3.782645,1.43176 4.473245,2.61561 0.15523,0.2661 0.48912,0.695 0.74197,0.9531 0.38801,0.39607 0.52027,0.62059 0.84785,1.43933 0.21346,0.53353 0.46506,1.16056 0.5591,1.3934 0.10773,0.26675 0.18671,0.70517 0.21351,1.18533 0.0299,0.5364 0.0897,0.84016 0.20176,1.02599 0.13138,0.21783 0.15896,0.43253 0.15767,1.22767 -0.003,1.96184 -0.4993,3.71306 -1.44808,5.11143 -0.52927,0.78006 -2.34048,2.62661 -3.207025,3.2696 -0.655172,0.48614 -1.993629,0.99361 -2.794,1.05933 -0.302684,0.0249 -0.797984,0.10436 -1.100667,0.17668 -0.755935,0.1806 -3.060276,0.17001 -3.764496,-0.0173 -1.270085,-0.33783 -2.73296,-1.22492 -4.272925,-2.59108 -0.512895,-0.45501 -0.862077,-0.85822 -1.191246,-1.37555 -0.508064,-0.79848 -0.748212,-0.95975 -1.012658,-0.68004 -0.239399,0.25322 -0.335944,0.80836 -0.443121,2.54801 -0.08686,1.40985 -0.0815,1.7993 0.04022,2.921 0.07724,0.71185 0.162449,2.26582 0.18935,3.45327 0.0269,1.18745 0.08065,2.3114 0.119453,2.49767 0.0388,0.18626 0.14803,0.70061 0.242735,1.143 0.0947,0.44238 0.194476,1.05198 0.221715,1.35466 0.07106,0.7896 0.303273,1.79571 0.454345,1.9685 0.147268,0.16845 0.614899,0.19751 0.88157,0.0548 0.225996,-0.12095 0.554803,0.0203 0.650683,0.27946 0.09268,0.25053 -0.02191,0.72384 -0.240331,0.9927 -0.0975,0.12002 -0.352004,0.48492 -0.565555,0.81089 -0.213552,0.32596 -0.497596,0.75037 -0.631209,0.94313 -0.133613,0.19276 -0.281869,0.45288 -0.329458,0.57805 -0.04759,0.12516 -0.26396,0.47623 -0.480826,0.78014 -0.423537,0.59353 -0.790246,1.47894 -0.790246,1.90803 0,0.41459 0.204731,0.57431 0.736162,0.57431 0.829602,0 1.180381,-0.28579 2.597986,-2.11666 0.784593,-1.01333 1.311752,-1.66765 1.825815,-2.26625 0.241844,-0.28161 0.45156,-0.30121 0.547508,-0.0512 0.0774,0.20169 -0.403012,1.05125 -0.980515,1.73395 -0.294776,0.34847 -0.814029,0.99454 -1.153896,1.43572 -0.385161,0.49997 -0.799298,0.92908 -1.099376,1.13911 -0.264789,0.18534 -0.618818,0.47033 -0.786729,0.63331 l -0.305295,0.29634 -0.09877,1.10066 c -0.147518,1.64383 -0.124733,3.04032 0.06603,4.04723 0.08997,0.47489 0.203233,1.08369 0.251688,1.35288 0.04846,0.26919 0.187903,0.72639 0.309881,1.016 0.121979,0.28961 0.308066,0.81231 0.413527,1.16156 0.388802,1.28757 0.888483,2.18052 2.258878,4.03673 0.739188,1.00123 0.901318,1.15018 1.965558,1.80568 1.319983,0.81302 2.522572,1.35652 3.272964,1.47917 0.209506,0.0342 0.772122,0.15373 1.25026,0.26553 0.478138,0.1118 1.240138,0.26002 1.693334,0.32937 0.453195,0.0694 1.166891,0.17952 1.585991,0.24482 0.4191,0.0653 1.485901,0.1438 2.370661,0.1745 0.88477,0.0307 1.74202,0.0879 1.905,0.12712 0.38315,0.0922 6.17086,0.0412 7.112,-0.0627 z m -1.92179,-32.65473 c -0.28864,-0.0574 -0.62558,-0.17035 -0.74876,-0.25105 -0.34602,-0.22672 -0.55849,-0.81279 -0.6315,-1.74183 -0.0878,-1.11701 -0.23825,-1.35339 -0.86221,-1.35444 -0.46936,-7.6e-4 -0.93358,-0.17102 -1.4461,-0.53029 -0.58655,-0.41118 -0.77557,-0.69745 -0.91774,-1.38992 -0.14414,-0.70212 -0.0346,-1.15022 0.57392,-2.34751 0.29126,-0.57309 0.51891,-1.15319 0.58438,-1.48914 0.059,-0.30268 0.20122,-0.76089 0.31609,-1.01824 0.1858,-0.41629 0.27657,-0.5083 0.82289,-0.83417 0.8919,-0.53199 1.40985,-0.68759 2.28885,-0.68759 0.63326,0 0.81886,0.0351 1.27792,0.24197 0.6745,0.30389 1.2884,0.9339 1.42514,1.46254 0.0526,0.2034 0.11771,0.44603 0.14467,0.53916 0.027,0.0931 0.26685,0.4984 0.5331,0.90059 0.79398,1.19935 0.87161,1.40549 0.8034,2.13336 -0.0804,0.85797 -0.35146,1.33314 -1.04389,1.82991 -0.29552,0.21201 -0.58127,0.46167 -0.635,0.55481 -0.059,0.1022 -0.11448,0.77503 -0.14003,1.6972 -0.0491,1.77233 -0.0863,1.87604 -0.78964,2.20353 -0.48007,0.22352 -0.76439,0.23835 -1.55549,0.0811 z m 0.19477,-0.98335 c 0.15715,-0.13042 0.17201,-2.36065 0.0168,-2.51589 -0.17947,-0.17947 -0.55013,-0.11853 -0.73892,0.12148 -0.13961,0.17749 -0.17402,0.33757 -0.16834,0.78317 0.0119,0.93072 0.11547,1.54419 0.28124,1.6654 0.16535,0.12091 0.42626,0.0977 0.60926,-0.0542 z m 1.53383,-0.32625 c 0.0665,-0.0852 0.1041,-0.46552 0.10584,-1.06999 0.003,-0.88271 -0.009,-0.94896 -0.20099,-1.12908 -0.16343,-0.15354 -0.23675,-0.17365 -0.37104,-0.10178 -0.2449,0.13107 -0.27195,0.26276 -0.27195,1.32406 0,0.88337 0.0146,0.97219 0.17905,1.08736 0.195,0.13658 0.39759,0.0965 0.55909,-0.11057 z m -2.43981,-3.05786 c 0.23695,-0.09 0.74533,-0.21857 1.12974,-0.28563 2.65652,-0.46341 2.9417,-0.65836 2.94228,-2.01141 3.4e-4,-0.81343 -0.0663,-1.06735 -0.34913,-1.33088 -0.25304,-0.23575 -0.6303,-0.22326 -1.04755,0.0347 -0.18627,0.11514 -0.62442,0.34972 -0.97367,0.52128 -0.62623,0.30762 -0.64972,0.31202 -1.70065,0.31842 l -1.06566,0.006 -0.62768,-0.31788 c -0.70864,-0.35889 -0.91859,-0.38767 -1.12931,-0.15482 -0.2162,0.2389 -0.5567,1.38785 -0.5567,1.87849 0,0.78234 0.49375,1.33823 1.35467,1.52516 0.45235,0.0982 1.54172,-7.7e-4 2.02366,-0.1839 z m 1.44767,-3.75491 c 0.65677,-0.34341 0.93133,-0.75306 0.93133,-1.38952 0,-0.84386 -0.43383,-1.07118 -1.93674,-1.01483 -1.12237,0.0421 -1.59932,0.1995 -1.98189,0.65415 -0.1868,0.22201 -0.23003,0.35752 -0.23003,0.72114 0,0.5386 0.20064,0.8404 0.71048,1.06866 0.47814,0.21407 2.06979,0.18893 2.50685,-0.0396 z m -14.054665,3.88571 c 1.875764,-0.20773 4.170782,-1.28966 5.365525,-2.52944 1.04456,-1.08393 1.50974,-1.82562 2.13022,-3.39641 l 0.40133,-1.016 0.01,-1.94733 c 0.0103,-2.07612 -0.0409,-2.51069 -0.40338,-3.42949 -0.11933,-0.30242 -0.33218,-0.84748 -0.47301,-1.21125 -0.33942,-0.87674 -0.62583,-1.27865 -1.69152,-2.37361 -1.007791,-1.03547 -1.309513,-1.22088 -2.518966,-1.54794 -0.80245,-0.21701 -0.902655,-0.22419 -3.001737,-0.21529 -1.902809,0.008 -2.248217,0.0305 -2.790844,0.18083 -1.250027,0.3464 -2.662875,1.01289 -3.419582,1.61314 -1.209686,0.95958 -1.92637,1.94559 -2.519067,3.46572 -0.827715,2.12291 -0.914172,3.84155 -0.319563,6.35248 0.337418,1.42486 0.366709,1.49337 1.073611,2.51132 1.294564,1.86418 2.692982,2.85471 4.601353,3.25922 0.967414,0.20506 2.484996,0.39883 2.836333,0.36215 0.1397,-0.0146 0.46355,-0.0497 0.719667,-0.0781 z m -5.074228,-8.84522 c -0.735176,-0.29473 -1.08034,-0.60008 -1.439016,-1.27302 -0.352819,-0.66196 -0.356933,-1.224 -0.01335,-1.82302 0.46427,-0.80941 1.213804,-1.15574 2.534503,-1.17108 l 0.876247,-0.0102 0.370844,0.42334 c 0.455159,0.51958 0.628979,1.0635 0.626469,1.96036 -0.0029,1.03305 -0.295346,1.52656 -1.121113,1.89183 -0.659869,0.29189 -1.109818,0.29233 -1.834589,0.002 z m 0.49836,-2.15597 c 0.05584,-0.0673 0.08908,-0.21016 0.07387,-0.3175 -0.03569,-0.25176 -0.394235,-0.31823 -0.552089,-0.10235 -0.142133,0.19438 -0.139218,0.24745 0.02247,0.40914 0.165837,0.16584 0.323922,0.16955 0.455751,0.0107 z m 32.688943,8.92549 c 1.78546,-0.35422 2.845,-0.92901 4.24104,-2.30072 1.38382,-1.35969 1.727,-1.96394 2.20238,-3.87776 0.31077,-1.25112 0.32599,-1.37635 0.32608,-2.68472 0,-1.35255 -0.004,-1.38428 -0.29441,-2.19636 -0.46196,-1.2925 -0.95556,-2.04199 -2.09067,-3.17449 -0.93147,-0.92932 -1.04487,-1.01357 -1.97633,-1.4682 -1.72438,-0.84166 -1.98789,-0.91095 -3.62979,-0.9545 -0.89039,-0.0236 -1.62489,-10e-4 -1.94733,0.0599 -1.47461,0.27858 -3.66223,1.02051 -4.34764,1.47451 -0.37976,0.25154 -1.80098,1.85212 -2.02318,2.2785 -0.0673,0.12923 -0.26716,0.70073 -0.44405,1.27 -0.40416,1.30068 -0.56655,2.67713 -0.49121,4.16354 0.10622,2.09583 0.83928,4.62206 1.56974,5.40956 0.12281,0.1324 0.39474,0.33456 0.60429,0.44925 0.20955,0.11468 0.6477,0.36122 0.97367,0.54786 1.67018,0.95631 2.51392,1.15725 4.87208,1.16032 1.28413,0.002 1.83405,-0.0334 2.45533,-0.15667 z m -0.31345,-6.46546 c -0.64257,-0.29231 -1.31105,-1.58442 -1.31105,-2.53412 0,-0.54454 0.2253,-1.37243 0.45345,-1.66624 0.0904,-0.11641 0.4186,-0.37316 0.72933,-0.57055 0.61746,-0.39222 0.9854,-0.45271 1.48468,-0.2441 0.45038,0.18818 1.17107,0.96735 1.52732,1.65124 l 0.32553,0.62492 -0.19016,0.80027 c -0.22652,0.95333 -0.50526,1.3681 -1.17057,1.74182 -0.54208,0.3045 -1.40889,0.39676 -1.84853,0.19676 z m 0.59999,-2.47074 c 0.15741,-0.1574 0.15876,-0.16872 0.0454,-0.38052 -0.0497,-0.0929 -0.17663,-0.16376 -0.29336,-0.16376 -0.1723,0 -0.381,0.20234 -0.381,0.36938 0,0.0885 0.27156,0.30795 0.381,0.30795 0.0632,0 0.17478,-0.0599 0.24795,-0.13305 z m -34.500205,-6.67709 c 0.05545,-0.0668 0.08869,-0.24659 0.07387,-0.39952 -0.0298,-0.30759 -0.136784,-0.38454 -0.929254,-0.6684 -0.651848,-0.23348 -0.998954,-0.48555 -1.196941,-0.8692 -0.136205,-0.26394 -0.149116,-0.36141 -0.07068,-0.53357 0.191431,-0.42014 1.124772,-0.59211 1.770481,-0.32621 0.173129,0.0713 0.472574,0.29989 0.665433,0.508 0.417554,0.45056 0.758112,0.50497 1.089086,0.174 0.436619,-0.43662 0.382072,-1.07556 -0.129182,-1.51317 -0.557587,-0.47728 -1.142673,-0.74851 -1.789936,-0.82979 -1.165541,-0.14635 -2.247327,0.17703 -2.982531,0.89157 -0.536558,0.52147 -0.729158,0.94138 -0.728773,1.58889 3.39e-4,0.61396 0.185611,0.99954 0.577604,1.20225 0.264458,0.13675 1.164253,0.3471 1.803055,0.4215 0.21522,0.0251 0.59622,0.1391 0.846667,0.25341 0.525556,0.23988 0.857618,0.27313 1.001101,0.10024 z m 39.235895,-0.91071 c 0.13326,-0.15408 0.35913,-0.52513 0.50193,-0.82454 0.218,-0.45708 0.25994,-0.64718 0.26148,-1.18533 0.003,-1.02599 -0.38507,-1.58709 -1.34624,-1.9467 -0.55861,-0.20901 -1.49933,-0.23405 -2.07248,-0.0552 -0.57117,0.17826 -1.3325,0.62287 -1.74751,1.02052 -0.31592,0.30271 -0.36915,0.4028 -0.36915,0.69419 0,0.24211 0.0716,0.43938 0.24802,0.68285 0.57501,0.79378 1.01733,0.822 2.33053,0.1487 0.90603,-0.46455 1.27625,-0.55633 1.46851,-0.36407 0.1681,0.1681 0.11708,0.43638 -0.19473,1.02395 -0.33793,0.63681 -0.36339,0.83939 -0.13427,1.06851 0.23296,0.23296 0.73289,0.10825 1.05391,-0.26291 z"
         style="fill:#000000;stroke-width:0.08466667" />
    </g>
  </g>
</svg>
